<svg width="36" height="29" viewBox="0 0 36 29" fill="none" xmlns="http://www.w3.org/2000/svg">
<path d="M28.8759 21.75H15.0799C14.2017 21.7516 13.3466 21.4778 12.6431 20.9695C11.9396 20.4612 11.4258 19.7459 11.1787 18.9312L6.51703 3.4191C6.40587 3.05762 6.17623 2.74085 5.86271 2.51647C5.54918 2.29208 5.16874 2.17225 4.77866 2.175H1.12492C0.826572 2.175 0.540445 2.06042 0.329481 1.85648C0.118518 1.65253 0 1.37592 0 1.0875C0 0.799077 0.118518 0.522467 0.329481 0.318521C0.540445 0.114575 0.826572 0 1.12492 0H4.77866C6.58753 0 8.19091 1.15855 8.67988 2.8188L9.57531 5.8H33.4056C34.2395 5.8 35 6.16975 35.495 6.81355C35.9824 7.44865 36.1249 8.2476 35.8879 9.0045L32.7292 19.0762C32.4582 19.8563 31.9403 20.5343 31.2488 21.0141C30.5573 21.494 29.7272 21.7514 28.8759 21.75ZM10.2278 7.975L13.34 18.3309C13.4512 18.6924 13.6808 19.0092 13.9944 19.2335C14.3079 19.4579 14.6883 19.5778 15.0784 19.575H28.8744C29.6409 19.575 30.3428 19.0965 30.5843 18.4121L33.7326 8.37085C33.7467 8.32665 33.7499 8.27985 33.7418 8.23425C33.7337 8.18865 33.7146 8.14554 33.6861 8.1084C33.6535 8.06601 33.6109 8.03178 33.5619 8.00857C33.5128 7.98536 33.4587 7.97385 33.4041 7.975H10.2278ZM16.4988 29C14.8444 29 13.499 27.6994 13.499 26.1C13.499 24.5007 14.8444 23.2 16.4988 23.2C18.1532 23.2 19.4986 24.5007 19.4986 26.1C19.4986 27.6994 18.1532 29 16.4988 29ZM16.4988 25.375C16.4001 25.3752 16.3025 25.3942 16.2114 25.4309C16.1203 25.4675 16.0375 25.5212 15.9679 25.5888C15.8983 25.6564 15.8431 25.7366 15.8055 25.8248C15.7679 25.913 15.7487 26.0075 15.7489 26.1029C15.7491 26.1983 15.7687 26.2927 15.8066 26.3808C15.8446 26.4689 15.9001 26.5488 15.97 26.6162C16.0399 26.6835 16.1229 26.7368 16.2141 26.7732C16.3054 26.8095 16.4031 26.8281 16.5018 26.8279C16.7011 26.8275 16.8921 26.7506 17.0327 26.6141C17.1734 26.4776 17.2522 26.2927 17.2518 26.1C17.2514 25.9073 17.1718 25.7227 17.0306 25.5867C16.8894 25.4508 16.6981 25.3746 16.4988 25.375ZM26.9981 29C25.3437 29 23.9983 27.6994 23.9983 26.1C23.9983 24.5007 25.3437 23.2 26.9981 23.2C28.6524 23.2 29.9978 24.5007 29.9978 26.1C29.9978 27.6994 28.6524 29 26.9981 29ZM26.9981 25.375C26.8994 25.3752 26.8017 25.3942 26.7106 25.4309C26.6195 25.4675 26.5368 25.5212 26.4672 25.5888C26.3975 25.6564 26.3423 25.7366 26.3047 25.8248C26.2672 25.913 26.2479 26.0075 26.2481 26.1029C26.2483 26.1983 26.2679 26.2927 26.3059 26.3808C26.3438 26.4689 26.3994 26.5488 26.4693 26.6162C26.5392 26.6835 26.6221 26.7368 26.7134 26.7732C26.8046 26.8095 26.9024 26.8281 27.0011 26.8279C27.2004 26.8275 27.3913 26.7506 27.532 26.6141C27.6726 26.4776 27.7514 26.2927 27.751 26.1C27.7506 25.9073 27.6711 25.7227 27.5299 25.5867C27.3887 25.4508 27.1974 25.3746 26.9981 25.375Z" fill="#F6F5F3"/>
</svg>
