<svg width="30" height="32" viewBox="0 0 30 32" fill="none" xmlns="http://www.w3.org/2000/svg">
<path fill-rule="evenodd" clip-rule="evenodd" d="M15 2.28571C13.4699 2.28571 12.0025 2.88775 10.9205 3.95939C9.8386 5.03103 9.23077 6.48448 9.23077 8C9.23077 9.51552 9.8386 10.969 10.9205 12.0406C12.0025 13.1122 13.4699 13.7143 15 13.7143C16.5301 13.7143 17.9975 13.1122 19.0795 12.0406C20.1614 10.969 20.7692 9.51552 20.7692 8C20.7692 6.48448 20.1614 5.03103 19.0795 3.95939C17.9975 2.88775 16.5301 2.28571 15 2.28571ZM6.92308 8C6.92308 5.87827 7.77404 3.84344 9.28875 2.34315C10.8035 0.842855 12.8579 0 15 0C17.1421 0 19.1965 0.842855 20.7112 2.34315C22.226 3.84344 23.0769 5.87827 23.0769 8C23.0769 10.1217 22.226 12.1566 20.7112 13.6569C19.1965 15.1571 17.1421 16 15 16C12.8579 16 10.8035 15.1571 9.28875 13.6569C7.77404 12.1566 6.92308 10.1217 6.92308 8ZM27.5631 23.5261C23.6946 21.49 19.3808 20.4252 15 20.4252C10.6192 20.4252 6.30541 21.49 2.43692 23.5261C2.39781 23.5466 2.36511 23.5774 2.34233 23.6149C2.31956 23.6525 2.30758 23.6956 2.30769 23.7394V29.3318C2.30769 29.5436 2.48 29.7128 2.69231 29.7128H27.3077C27.4097 29.7128 27.5075 29.6726 27.5797 29.6012C27.6518 29.5297 27.6923 29.4328 27.6923 29.3318V23.7394C27.6924 23.6956 27.6804 23.6525 27.6577 23.6149C27.6349 23.5774 27.6022 23.5466 27.5631 23.5261ZM1.35385 21.507C5.55583 19.2954 10.2416 18.1388 15 18.1388C19.7584 18.1388 24.4442 19.2954 28.6462 21.507C29.48 21.9459 30 22.8038 30 23.7379V29.3333C30 30.0406 29.7163 30.7189 29.2114 31.219C28.7065 31.719 28.0217 32 27.3077 32H2.69231C1.97826 32 1.29346 31.719 0.788559 31.219C0.283653 30.7189 0 30.0406 0 29.3333V23.7379C0 22.8038 0.52 21.9459 1.35385 21.507Z" fill="#F6F5F3"/>
</svg>
