<svg width="56" height="33" viewBox="0 0 56 33" fill="none" xmlns="http://www.w3.org/2000/svg">
<path d="M15.1666 28H6.41663C5.9525 28 5.50738 27.8156 5.17919 27.4874C4.851 27.1593 4.66663 26.7141 4.66663 26.25C4.66663 25.7859 4.851 25.3408 5.17919 25.0126C5.50738 24.6844 5.9525 24.5 6.41663 24.5H15.1666C15.6308 24.5 16.0759 24.6844 16.4041 25.0126C16.7323 25.3408 16.9166 25.7859 16.9166 26.25C16.9166 26.7141 16.7323 27.1593 16.4041 27.4874C16.0759 27.8156 15.6308 28 15.1666 28ZM32.6666 28H24.5C24.0358 28 23.5907 27.8156 23.2625 27.4874C22.9343 27.1593 22.75 26.7141 22.75 26.25C22.75 25.7859 22.9343 25.3408 23.2625 25.0126C23.5907 24.6844 24.0358 24.5 24.5 24.5H31.2526L35.7536 3.5H11.0833C10.6192 3.5 10.174 3.31563 9.84586 2.98744C9.51767 2.65925 9.33329 2.21413 9.33329 1.75C9.33329 1.28587 9.51767 0.840752 9.84586 0.512563C10.174 0.184374 10.6192 0 11.0833 0H37.9166C38.1773 0.000561859 38.4346 0.0592831 38.6697 0.171884C38.9049 0.284485 39.1119 0.448129 39.2758 0.650889C39.4396 0.853648 39.5562 1.09041 39.6169 1.34393C39.6777 1.59745 39.6811 1.86133 39.627 2.11633L34.377 26.6163C34.2932 27.0078 34.0777 27.3587 33.7664 27.6105C33.4552 27.8623 33.067 27.9998 32.6666 28Z" fill="#231F20"/>
<path d="M52.5 28H50.1667C49.7025 28 49.2574 27.8156 48.9292 27.4874C48.601 27.1593 48.4167 26.7141 48.4167 26.25C48.4167 25.7859 48.601 25.3408 48.9292 25.0126C49.2574 24.6844 49.7025 24.5 50.1667 24.5H51.086L52.4977 17.9083C52.4502 15.9286 51.6308 14.0458 50.2145 12.6617C48.7982 11.2776 46.897 10.5019 44.9167 10.5H37.8303L34.8296 24.5H40.8333C41.2974 24.5 41.7426 24.6844 42.0708 25.0126C42.3989 25.3408 42.5833 25.7859 42.5833 26.25C42.5833 26.7141 42.3989 27.1593 42.0708 27.4874C41.7426 27.8156 41.2974 28 40.8333 28H32.6666C32.406 27.9994 32.1487 27.9407 31.9135 27.8281C31.6784 27.7155 31.4714 27.5519 31.3075 27.3491C31.1437 27.1464 31.0271 26.9096 30.9663 26.6561C30.9056 26.4026 30.9022 26.1387 30.9563 25.8837L34.706 8.38367C34.7898 7.99219 35.0053 7.64128 35.3165 7.38948C35.6278 7.13767 36.016 7.0002 36.4163 7H44.9167C47.855 7.0037 50.6719 8.1726 52.7497 10.2503C54.8274 12.3281 55.9963 15.145 56 18.0833C56.0008 18.2066 55.9875 18.3295 55.9603 18.4497L54.2103 26.6163C54.1265 27.0078 53.911 27.3587 53.5998 27.6105C53.2885 27.8623 52.9003 27.9998 52.5 28Z" fill="#231F20"/>
<path d="M45.5 32.6667C42.2847 32.6667 39.6667 30.051 39.6667 26.8334C39.6667 23.6157 42.2847 21 45.5 21C48.7153 21 51.3333 23.6157 51.3333 26.8334C51.3333 30.051 48.7153 32.6667 45.5 32.6667ZM45.5 24.5C44.8992 24.5269 44.332 24.7845 43.9163 25.2191C43.5007 25.6538 43.2687 26.232 43.2687 26.8334C43.2687 27.4347 43.5007 28.013 43.9163 28.4476C44.332 28.8822 44.8992 29.1398 45.5 29.1667C46.1008 29.1398 46.6681 28.8822 47.0837 28.4476C47.4993 28.013 47.7313 27.4347 47.7313 26.8334C47.7313 26.232 47.4993 25.6538 47.0837 25.2191C46.6681 24.7845 46.1008 24.5269 45.5 24.5ZM19.8333 32.6667C16.618 32.6667 14 30.051 14 26.8334C14 23.6157 16.618 21 19.8333 21C23.0487 21 25.6667 23.6157 25.6667 26.8334C25.6667 30.051 23.0487 32.6667 19.8333 32.6667ZM19.8333 24.5C19.2326 24.5269 18.6653 24.7845 18.2496 25.2191C17.834 25.6538 17.602 26.232 17.602 26.8334C17.602 27.4347 17.834 28.013 18.2496 28.4476C18.6653 28.8822 19.2326 29.1398 19.8333 29.1667C20.4341 29.1398 21.0014 28.8822 21.417 28.4476C21.8327 28.013 22.0646 27.4347 22.0646 26.8334C22.0646 26.232 21.8327 25.6538 21.417 25.2191C21.0014 24.7845 20.4341 24.5269 19.8333 24.5ZM14.5833 8.16669H6.41667C5.95254 8.16669 5.50742 7.98231 5.17923 7.65412C4.85104 7.32594 4.66667 6.88082 4.66667 6.41669C4.66667 5.95256 4.85104 5.50744 5.17923 5.17925C5.50742 4.85106 5.95254 4.66669 6.41667 4.66669H14.5833C15.0475 4.66669 15.4926 4.85106 15.8208 5.17925C16.149 5.50744 16.3333 5.95256 16.3333 6.41669C16.3333 6.88082 16.149 7.32594 15.8208 7.65412C15.4926 7.98231 15.0475 8.16669 14.5833 8.16669ZM14.5833 15.1667H4.08333C3.61921 15.1667 3.17409 14.9823 2.8459 14.6541C2.51771 14.3259 2.33333 13.8808 2.33333 13.4167C2.33333 12.9526 2.51771 12.5074 2.8459 12.1793C3.17409 11.8511 3.61921 11.6667 4.08333 11.6667H14.5833C15.0475 11.6667 15.4926 11.8511 15.8208 12.1793C16.149 12.5074 16.3333 12.9526 16.3333 13.4167C16.3333 13.8808 16.149 14.3259 15.8208 14.6541C15.4926 14.9823 15.0475 15.1667 14.5833 15.1667ZM14.5833 22.1667H1.75C1.28587 22.1667 0.840752 21.9823 0.512563 21.6541C0.184375 21.3259 0 20.8808 0 20.4167C0 19.9526 0.184375 19.5074 0.512563 19.1793C0.840752 18.8511 1.28587 18.6667 1.75 18.6667H14.5833C15.0475 18.6667 15.4926 18.8511 15.8208 19.1793C16.149 19.5074 16.3333 19.9526 16.3333 20.4167C16.3333 20.8808 16.149 21.3259 15.8208 21.6541C15.4926 21.9823 15.0475 22.1667 14.5833 22.1667Z" fill="#231F20"/>
</svg>
